Coordinates
version=1
nRows=9
nColumns=63
inDegrees=yes

Units are S.I. units (second, meters, Newtons, ...)
If the header above contains a line with 'inDegrees', this indicates whether rotational values are in degrees (yes) or radians (no).

endheader
time	pelvis_tilt	pelvis_list	pelvis_rotation	pelvis_tx	pelvis_ty	pelvis_tz	hip_flexion_r	hip_adduction_r	hip_rotation_r	knee_angle_r	knee_angle_r_beta	ankle_angle_r	subtalar_angle_r	mtp_angle_r	hip_flexion_l	hip_adduction_l	hip_rotation_l	knee_angle_l	knee_angle_l_beta	ankle_angle_l	subtalar_angle_l	mtp_angle_l	L5_S1_Flex_Ext	L5_S1_Lat_Bending	L5_S1_axial_rotation	L4_L5_Flex_Ext	L4_L5_Lat_Bending	L4_L5_axial_rotation	L3_L4_Flex_Ext	L3_L4_Lat_Bending	L3_L4_axial_rotation	L2_L3_Flex_Ext	L2_L3_Lat_Bending	L2_L3_axial_rotation	L1_L2_Flex_Ext	L1_L2_Lat_Bending	L1_L2_axial_rotation	L1_T12_Flex_Ext	L1_T12_Lat_Bending	L1_T12_axial_rotation	Abs_r3	Abs_r2	Abs_r1	Abs_t1	Abs_t2	neck_flexion	neck_bending	neck_rotation	arm_flex_r	arm_add_r	arm_rot_r	elbow_flex_r	pro_sup_r	wrist_flex_r	wrist_dev_r	arm_flex_l	arm_add_l	arm_rot_l	elbow_flex_l	pro_sup_l	wrist_flex_l	wrist_dev_l
0.000000	7.497478	-6.855286	79.070143	0.267953	0.960247	0.525536	4.272598	4.776419	-3.977678	19.175518	0.334676	52.058842	18.199674	0.000000	3.136962	-4.499697	-4.769787	22.137476	0.386372	48.860186	-10.385650	0.000000	-0.092599	0.530038	-0.965953	-0.171965	0.704951	-1.026325	-0.152131	1.288735	-1.026325	-0.105831	1.288735	-0.845209	-0.085987	1.080854	-0.784837	-0.052911	0.821029	-0.724465	-0.661425	5.995898	-5.372342	0.000000	0.000000	19.890293	-2.237725	3.483337	20.899900	-5.264796	57.237400	44.833570	9.070294	-11.963763	8.325024	18.634399	-5.277536	41.425009	44.781582	73.480386	-8.329081	16.830842
0.016667	7.469118	-7.175839	79.584734	0.267181	0.959198	0.525542	4.768604	4.701607	-4.407144	19.667784	0.343268	52.130356	18.114216	0.000000	3.443058	-4.528746	-4.355398	21.990310	0.383803	48.801958	-9.781269	0.000000	-0.035122	0.527783	-1.067053	-0.065226	0.701952	-1.133743	-0.057703	1.283252	-1.133743	-0.040141	1.283252	-0.933671	-0.032615	1.076255	-0.866980	-0.020069	0.817536	-0.800290	-0.250876	5.970388	-5.934627	0.000000	0.000000	20.760977	-2.233439	3.101440	20.851566	-5.282203	56.209122	45.521282	11.088753	-11.746521	10.157594	17.797070	-5.455172	40.542541	45.848551	75.807119	-8.547400	16.905491
0.033333	7.411605	-7.407747	79.942443	0.266623	0.958329	0.525514	5.170690	4.602117	-4.680636	20.117202	0.351111	52.223972	18.030055	0.000000	3.652090	-4.507193	-4.069917	21.860208	0.381533	48.770557	-9.291579	0.000000	0.009242	0.522261	-1.136540	0.017163	0.694607	-1.207574	0.015183	1.269825	-1.207574	0.010562	1.269825	-0.994473	0.008582	1.064995	-0.923439	0.005281	0.808982	-0.852405	0.066013	5.907921	-6.321097	0.000000	0.000000	21.489660	-2.259593	2.766498	20.724823	-5.304278	55.438396	46.032644	12.444354	-11.620918	11.418498	17.180813	-5.597324	40.039133	46.588120	77.196452	-8.630155	16.949587
0.050000	7.327943	-7.559645	80.159708	0.266261	0.957628	0.525456	5.485587	4.480973	-4.815362	20.523276	0.358199	52.334916	17.947932	0.000000	3.774003	-4.440805	-3.901912	21.745505	0.379531	48.762824	-8.902892	0.000000	0.041794	0.513814	-1.178458	0.077616	0.683373	-1.252112	0.068664	1.249288	-1.252112	0.047767	1.249288	-1.031151	0.038810	1.047770	-0.957497	0.023881	0.795898	-0.883844	0.298533	5.812368	-6.554231	0.000000	0.000000	22.086098	-2.311712	2.481661	20.532527	-5.333468	54.889662	46.401546	13.261139	-11.561369	12.175855	16.752879	-5.711911	39.852789	47.056471	77.763830	-8.592727	16.956950
0.066667	7.221138	-7.640165	80.252967	0.266076	0.957087	0.525370	5.720025	4.341196	-4.828533	20.885513	0.364521	52.458413	17.868585	0.000000	3.818745	-4.335348	-3.839952	21.644537	0.377768	48.775597	-8.601518	0.000000	0.063836	0.502785	-1.196848	0.118550	0.668704	-1.271651	0.104876	1.222471	-1.271651	0.072958	1.222471	-1.047242	0.059278	1.025279	-0.972439	0.036476	0.778814	-0.897636	0.455974	5.687602	-6.656510	0.000000	0.000000	22.560046	-2.385318	2.250083	20.287535	-5.372219	54.527358	46.661876	13.663151	-11.542293	12.497784	16.480519	-5.806853	39.921508	47.309782	77.624695	-8.450497	16.921400
0.083333	7.094196	-7.657943	80.238658	0.266050	0.956694	0.525259	5.880735	4.185809	-4.737357	21.203419	0.370069	52.589691	17.792754	0.000000	3.796262	-4.196589	-3.872604	21.555638	0.376217	48.805715	-8.373767	0.000000	0.076667	0.489515	-1.195752	0.142379	0.651055	-1.270486	0.125957	1.190207	-1.270486	0.087623	1.190207	-1.046283	0.071193	0.998220	-0.971548	0.043808	0.758259	-0.896814	0.547628	5.537495	-6.650413	0.000000	0.000000	22.921258	-2.475934	2.074912	20.002706	-5.422976	54.315920	46.847521	13.774430	-11.538105	12.452404	16.330986	-5.890070	40.183292	47.404236	76.894490	-8.218846	16.836757
0.100000	6.950122	-7.621612	80.133220	0.266163	0.956440	0.525127	5.974448	4.017833	-4.559045	21.476500	0.374836	52.723974	17.721180	0.000000	3.716500	-4.030292	-3.988437	21.477144	0.374847	48.850017	-8.205949	0.000000	0.081589	0.474348	-1.179212	0.151519	0.630883	-1.252912	0.134043	1.153329	-1.252912	0.093248	1.153329	-1.031810	0.075764	0.967290	-0.958109	0.046620	0.734765	-0.884409	0.582784	5.365917	-6.558421	0.000000	0.000000	23.179489	-2.579083	1.959300	19.690896	-5.488184	54.219788	46.992370	13.719020	-11.523224	12.107836	16.271530	-5.969482	40.576143	47.396012	75.688657	-7.913153	16.696840
0.116667	6.791922	-7.539805	79.953089	0.266398	0.956315	0.524976	6.007894	3.840291	-4.310806	21.704261	0.378811	52.856488	17.654600	0.000000	3.589406	-3.842225	-4.176019	21.407387	0.373629	48.905344	-8.084375	0.000000	0.079902	0.457625	-1.151269	0.148386	0.608641	-1.223223	0.131271	1.112669	-1.223223	0.091320	1.112669	-1.007360	0.074197	0.933188	-0.935406	0.045656	0.708861	-0.863452	0.570733	5.176741	-6.403012	0.000000	0.000000	23.344494	-2.690289	1.906398	19.364963	-5.570289	54.203400	47.130311	13.620962	-11.472066	11.532197	16.269403	-6.053008	41.038062	47.341291	74.122639	-7.548801	16.495470
0.133333	6.622601	-7.421158	79.714704	0.266736	0.956309	0.524810	5.987804	3.656205	-4.009850	21.886209	0.381986	52.982460	17.593755	0.000000	3.424925	-3.638153	-4.423918	21.344705	0.372535	48.968532	-7.995355	0.000000	0.072907	0.439688	-1.115966	0.135395	0.584785	-1.185714	0.119779	1.069058	-1.185714	0.083325	1.069058	-0.976470	0.067701	0.896612	-0.906722	0.041659	0.681077	-0.836974	0.520766	4.973840	-6.206667	0.000000	0.000000	23.426028	-2.805074	1.919357	19.037764	-5.671737	54.231193	47.295233	13.604298	-11.359049	10.793609	16.291858	-6.148568	41.507050	47.296253	72.311880	-7.141170	16.226466
